<svg xmlns="http://www.w3.org/2000/svg" xmlns:xlink="http://www.w3.org/1999/xlink" viewBox="0 0 173.61 173.91"><defs><style>.cls-1{fill:url(#Degradado_sin_nombre_33);}.cls-2{fill:#fff;}</style><linearGradient id="Degradado_sin_nombre_33" y1="86.96" x2="173.61" y2="86.96" gradientUnits="userSpaceOnUse"><stop offset="0" stop-color="#3d75fc"/><stop offset="0.28" stop-color="#1943fa"/><stop offset="0.59" stop-color="#040433"/><stop offset="0.89" stop-color="#040433"/></linearGradient></defs><g id="Capa_2" data-name="Capa 2"><g id="Capa_2_copia_6" data-name="Capa 2 copia 6"><path class="cls-1" d="M170.52,60.92c-8.45-27.74-26.47-46.56-53.85-55.72-25.87-8.67-51.32-6.61-75.15,7-22.84,13-36.36,33-40.38,59.06-3.62,23.45,1.31,45.07,15.52,64.33a70.15,70.15,0,0,0,8.91,10,5.3,5.3,0,0,1,1.77,3.8c.34,4.28-.06,8.58.51,12.84.71,5.29,3.51,9.12,8.47,10.88a14.38,14.38,0,0,0,10.42-.28q6.56-2.78,13-5.74a7.13,7.13,0,0,1,4.88-.45c27.14,6,52.56,2.2,75.36-14.22,18.42-13.27,29.09-31.55,32.74-53.94.33-2,.59-4.12.88-6.19V77.35A97.52,97.52,0,0,0,170.52,60.92Z"/><path class="cls-2" d="M83.77,75.56a16.43,16.43,0,0,0,3.16-9.84,16.63,16.63,0,0,0-2.25-8.58,15.72,15.72,0,0,0-6.76-6.09A24.2,24.2,0,0,0,67,48.8H49.59a3.29,3.29,0,0,0-3.29,3.3v48.58a3.29,3.29,0,0,0,3.29,3.3h4.48a3.3,3.3,0,0,0,3.3-3.3V82.48h5.21l11.23,19.83A3.31,3.31,0,0,0,76.68,104h5.11a3.29,3.29,0,0,0,2.84-5L74.36,81.61A16.31,16.31,0,0,0,83.77,75.56ZM73.33,72q-2.2,2.18-6.72,2.18H57.37V58h9.24q4.52,0,6.72,2.09A7.71,7.71,0,0,1,75.55,66,8.07,8.07,0,0,1,73.33,72Z"/><path class="cls-2" d="M113.4,113.86a9.16,9.16,0,0,1-6.09,1.86,8.51,8.51,0,0,1-6-2,7.09,7.09,0,0,1-2.06-3.31,2.84,2.84,0,0,0-2.71-2.06H90.24a2.85,2.85,0,0,0-2.76,3.5,14.06,14.06,0,0,0,2.36,5.27,17,17,0,0,0,7.32,5.69,26.12,26.12,0,0,0,10.39,2,23,23,0,0,0,10.52-2.25,15.69,15.69,0,0,0,8.53-10.43,16,16,0,0,0,.48-4.08,13.08,13.08,0,0,0-2.45-8.06,15.92,15.92,0,0,0-5.85-4.75A65.75,65.75,0,0,0,110,92.08c-2.63-.79-4.68-1.49-6.12-2.09a11.11,11.11,0,0,1-3.64-2.38,4.94,4.94,0,0,1-1.46-3.67,6,6,0,0,1,1.93-4.82,7.67,7.67,0,0,1,5.18-1.66,9.12,9.12,0,0,1,6,1.85,6.47,6.47,0,0,1,2,2.74,2.91,2.91,0,0,0,2.7,2h6.54a2.85,2.85,0,0,0,2.75-3.57,14.71,14.71,0,0,0-5.3-8q-5.34-4.16-13.88-4.15a25.06,25.06,0,0,0-10.12,1.93,15.59,15.59,0,0,0-6.87,5.58,14.85,14.85,0,0,0-2.46,8.53,13.27,13.27,0,0,0,2.42,8.34,15.2,15.2,0,0,0,5.77,4.67,65.68,65.68,0,0,0,8.73,3.12,61.08,61.08,0,0,1,6.21,2,10.35,10.35,0,0,1,3.75,2.49,5.62,5.62,0,0,1,1.51,4A6,6,0,0,1,113.4,113.86Z"/></g></g></svg>