<svg xmlns="http://www.w3.org/2000/svg" xmlns:xlink="http://www.w3.org/1999/xlink" viewBox="0 0 414.09 462.33"><defs><style>.cls-1{fill:url(#Degradado_sin_nombre_33);}.cls-2{fill:url(#Degradado_sin_nombre_26);}.cls-3{fill:url(#Degradado_sin_nombre_27);}.cls-4{fill:url(#Degradado_sin_nombre_26-2);}.cls-5{fill:url(#Degradado_sin_nombre_26-3);}.cls-6{fill:url(#Degradado_sin_nombre_26-4);}.cls-7{fill:url(#Degradado_sin_nombre_26-5);}</style><linearGradient id="Degradado_sin_nombre_33" x1="1.96" y1="138.84" x2="381.13" y2="305.28" gradientUnits="userSpaceOnUse"><stop offset="0" stop-color="#3d75fc"/><stop offset="0.28" stop-color="#1943fa"/><stop offset="0.59" stop-color="#040433"/><stop offset="0.89" stop-color="#040433"/></linearGradient><linearGradient id="Degradado_sin_nombre_26" x1="58.93" y1="113.26" x2="148.93" y2="181.38" gradientUnits="userSpaceOnUse"><stop offset="0" stop-color="#3d75fc"/><stop offset="0.54" stop-color="#1943fa"/><stop offset="0.89" stop-color="#040433"/></linearGradient><linearGradient id="Degradado_sin_nombre_27" x1="236.27" y1="185.73" x2="330.73" y2="247.24" gradientUnits="userSpaceOnUse"><stop offset="0" stop-color="#3d75fc"/><stop offset="0.66" stop-color="#040433"/><stop offset="1" stop-color="#030a27"/></linearGradient><linearGradient id="Degradado_sin_nombre_26-2" x1="238.9" y1="396.01" x2="268.14" y2="396.01" xlink:href="#Degradado_sin_nombre_26"/><linearGradient id="Degradado_sin_nombre_26-3" x1="273.06" y1="396.08" x2="300.83" y2="396.08" xlink:href="#Degradado_sin_nombre_26"/><linearGradient id="Degradado_sin_nombre_26-4" x1="303.82" y1="396.06" x2="328.84" y2="396.06" xlink:href="#Degradado_sin_nombre_26"/><linearGradient id="Degradado_sin_nombre_26-5" x1="333.92" y1="396.08" x2="357.24" y2="396.08" xlink:href="#Degradado_sin_nombre_26"/></defs><g id="Capa_2" data-name="Capa 2"><g id="Capa_11" data-name="Capa 11"><g id="Capa_1_copia_6" data-name="Capa 1 copia 6"><path class="cls-1" d="M307.31,0H99.85A106.93,106.93,0,0,0,1.3,65.73a16.55,16.55,0,0,0,15.23,23h0A16.5,16.5,0,0,0,31.77,78.51,73.72,73.72,0,0,1,99.85,33.07H307.31A73.71,73.71,0,0,1,381,106.78V257.71a73.71,73.71,0,0,1-73.71,73.71H196.71L161,364.49,147.9,376.58c-12,11.11-31.51,2.59-31.51-13.78V331.42H99.85a73.63,73.63,0,0,1-61.62-33.28,16.54,16.54,0,0,0-13.82-7.51h0c-13.09,0-21.07,14.55-13.89,25.49a107,107,0,0,0,72.81,47.09v84.67a14.42,14.42,0,0,0,24.27,10.54l100.48-93.93h99.24A106.9,106.9,0,0,0,414.09,257.71V106.78A106.78,106.78,0,0,0,307.31,0Z"/><path class="cls-2" d="M159.13,236.14l-30.51-53.88H114.13v48.2A11.53,11.53,0,0,1,102.6,242H94.92a11.54,11.54,0,0,1-11.54-11.53V100.23A11.54,11.54,0,0,1,94.92,88.7h46q17.79,0,30.31,6.26T190,111.87a46.16,46.16,0,0,1,6.25,23.83A45.69,45.69,0,0,1,187.48,163q-8.79,12.19-26.13,16.8l26.41,44.76A11.53,11.53,0,0,1,177.83,242h-8.66A11.53,11.53,0,0,1,159.13,236.14Zm-45-76.94h25.69q12.52,0,18.67-6t6.15-16.8q0-10.55-6.15-16.36t-18.67-5.82H114.13Z"/><path class="cls-3" d="M242.88,279.83a46.74,46.74,0,0,1-20.1-15.64,39.11,39.11,0,0,1-6.7-15.45,7.36,7.36,0,0,1,7.31-8.67h18.18a7.4,7.4,0,0,1,7.11,5.4,19.51,19.51,0,0,0,5.71,9.38q6,5.43,16.41,5.43,10.63,0,16.72-5.11a16.58,16.58,0,0,0,6.09-13.36,15.45,15.45,0,0,0-4.13-11.08,28.9,28.9,0,0,0-10.32-6.84,169.89,169.89,0,0,0-17.06-5.54,183.29,183.29,0,0,1-24-8.58A42,42,0,0,1,222.24,197q-6.63-8.58-6.63-22.93,0-13.46,6.74-23.46a42.76,42.76,0,0,1,18.9-15.32q12.17-5.31,27.81-5.32,23.46,0,38.13,11.41a40.53,40.53,0,0,1,14.69,22.5,7.45,7.45,0,0,1-7.19,9.33H296A7.55,7.55,0,0,1,288.9,168a17.73,17.73,0,0,0-5.61-7.77q-6.19-5.1-16.41-5.11-8.91,0-14.23,4.57t-5.32,13.25a13.69,13.69,0,0,0,4,10.1,30.58,30.58,0,0,0,10,6.52q6,2.5,16.84,5.76A177,177,0,0,1,302.3,204a43.35,43.35,0,0,1,16.08,13q6.57,8.51,6.73,22.17a43.2,43.2,0,0,1-1.32,11.21q-4.94,19.23-23.45,28.65-12.16,6.19-28.89,6.2A71.84,71.84,0,0,1,242.88,279.83Z"/><path class="cls-4" d="M242.49,388.35a18.15,18.15,0,0,1,6.32-5.3,17.07,17.07,0,0,1,7.82-1.91,13.3,13.3,0,0,1,7.89,2.29,9.63,9.63,0,0,1,3.51,4.43,1.49,1.49,0,0,1-1.39,2h-2.83a1.43,1.43,0,0,1-1.26-.83,6,6,0,0,0-2.24-2.46,8.31,8.31,0,0,0-4.44-1.11,11.4,11.4,0,0,0-5.38,1.3,11.71,11.71,0,0,0-4.19,3.68,13.38,13.38,0,0,0-2.24,5.53,16.2,16.2,0,0,0-.21,2.35,8,8,0,0,0,2.26,6,8.24,8.24,0,0,0,6,2.22,10.71,10.71,0,0,0,4.86-1.11,9.73,9.73,0,0,0,3.3-2.7,1.47,1.47,0,0,1,1.15-.59h2.22a1.49,1.49,0,0,1,1.19,2.38,16.32,16.32,0,0,1-4.8,4.07,17.37,17.37,0,0,1-8.67,2.26,13.64,13.64,0,0,1-6.45-1.5,11,11,0,0,1-4.44-4.23,12.26,12.26,0,0,1-1.6-6.29,17.24,17.24,0,0,1,.26-2.85A17.48,17.48,0,0,1,242.49,388.35Z"/><path class="cls-5" d="M300.8,383.45l-4.57,25.83a1.64,1.64,0,0,1-1.62,1.35h-1.44a1.64,1.64,0,0,1-1.62-1.92l1.93-10.94h-13.7l-2,11.5a1.63,1.63,0,0,1-1.62,1.36H274.7a1.64,1.64,0,0,1-1.62-1.93l4.57-25.82a1.64,1.64,0,0,1,1.62-1.36h1.44a1.65,1.65,0,0,1,1.62,1.93l-1.88,10.64h13.7l2-11.21a1.64,1.64,0,0,1,1.62-1.36h1.43A1.64,1.64,0,0,1,300.8,383.45Z"/><path class="cls-6" d="M323.08,404.68H310.89l-2.7,5.1a1.58,1.58,0,0,1-1.41.85h-1.36a1.59,1.59,0,0,1-1.4-2.34l13.87-26a1.6,1.6,0,0,1,1.41-.84h3.24a1.6,1.6,0,0,1,1.57,1.31l4.7,26a1.59,1.59,0,0,1-1.57,1.88h-1.78a1.6,1.6,0,0,1-1.57-1.31Zm-.63-3.72-2.39-13.7-7.2,13.7Z"/><path class="cls-7" d="M357.21,383.32l-.12.67a1.52,1.52,0,0,1-1.5,1.26h-3.88a4.62,4.62,0,0,0-4.55,3.81l-3.59,20.38a1.45,1.45,0,0,1-1.43,1.19h-1.83a1.45,1.45,0,0,1-1.43-1.7l3.55-20.12a3,3,0,0,0-3-3.56h-4a1.53,1.53,0,0,1-1.5-1.8l.12-.67a1.52,1.52,0,0,1,1.5-1.26h20.14A1.53,1.53,0,0,1,357.21,383.32Z"/></g></g></g></svg>