<svg xmlns="http://www.w3.org/2000/svg" viewBox="0 0 187.81 209.69"><defs><style>.cls-1{fill:#fff;}</style></defs><g id="Capa_2" data-name="Capa 2"><g id="Capa_1_copia_3" data-name="Capa 1 copia 3"><path class="cls-1" d="M139.38,0H45.29A48.49,48.49,0,0,0,.59,29.81a7.49,7.49,0,1,0,13.82,5.8A33.44,33.44,0,0,1,45.29,15h94.09a33.43,33.43,0,0,1,33.43,33.43v68.45a33.43,33.43,0,0,1-33.43,33.43H89.22L73,165.31l-5.93,5.48a8.51,8.51,0,0,1-14.29-6.25V150.31h-7.5a33.38,33.38,0,0,1-27.95-15.09,7.51,7.51,0,0,0-6.27-3.41h0a7.49,7.49,0,0,0-6.29,11.56,48.53,48.53,0,0,0,33,21.36v38.4a6.54,6.54,0,0,0,11,4.78l45.57-42.6h45a48.48,48.48,0,0,0,48.43-48.43V48.43A48.43,48.43,0,0,0,139.38,0Z"/><path class="cls-1" d="M85,73.94a21.6,21.6,0,0,0,1.14-23.2,19.82,19.82,0,0,0-8.51-7.67,30.54,30.54,0,0,0-13.75-2.84H43.05a5.23,5.23,0,0,0-5.23,5.23v59.06a5.23,5.23,0,0,0,5.23,5.23h3.48a5.23,5.23,0,0,0,5.23-5.23V82.66h6.58L72.17,107.1a5.23,5.23,0,0,0,4.55,2.65h3.93a5.24,5.24,0,0,0,4.51-7.89l-12-20.3Q81,79.47,85,73.94ZM71.88,69.46q-2.79,2.75-8.46,2.74H51.76V51.78H63.42q5.67,0,8.46,2.64a9.73,9.73,0,0,1,2.79,7.42A10.17,10.17,0,0,1,71.88,69.46Z"/><path class="cls-1" d="M114.59,72.42A9.57,9.57,0,0,1,121,70.35a11.34,11.34,0,0,1,7.44,2.32A8.11,8.11,0,0,1,131,76.19a3.41,3.41,0,0,0,3.19,2.34h8.51A3.37,3.37,0,0,0,146,74.31a18.28,18.28,0,0,0-6.66-10.21q-6.65-5.17-17.29-5.18a31.14,31.14,0,0,0-12.61,2.42,19.42,19.42,0,0,0-8.58,7,18.61,18.61,0,0,0-3,10.64q0,6.5,3,10.39a19,19,0,0,0,7.2,5.82A82.56,82.56,0,0,0,118.87,99a78.58,78.58,0,0,1,7.74,2.51,13.14,13.14,0,0,1,4.68,3.11,7,7,0,0,1,1.87,5,7.52,7.52,0,0,1-2.76,6.06,11.41,11.41,0,0,1-7.58,2.32,10.59,10.59,0,0,1-7.44-2.47,8.85,8.85,0,0,1-2.6-4.25,3.35,3.35,0,0,0-3.22-2.45h-8.24A3.34,3.34,0,0,0,98,112.82a17.74,17.74,0,0,0,3,7,21.31,21.31,0,0,0,9.11,7.1,32.76,32.76,0,0,0,13,2.46,28.61,28.61,0,0,0,13.11-2.81,19.77,19.77,0,0,0,11.23-18.08,16.35,16.35,0,0,0-3-10,19.59,19.59,0,0,0-7.3-5.91,80.08,80.08,0,0,0-10.93-4A78.94,78.94,0,0,1,118.53,86,13.78,13.78,0,0,1,114,83a6.23,6.23,0,0,1-1.83-4.59A7.49,7.49,0,0,1,114.59,72.42Z"/><path class="cls-1" d="M120,173.9a6.06,6.06,0,0,0-3.58-1,7.65,7.65,0,0,0-3.54.87,8.1,8.1,0,0,0-2.87,2.4,7.89,7.89,0,0,0-1.51,3.48,7.38,7.38,0,0,0-.12,1.29,5.54,5.54,0,0,0,.72,2.85,5.12,5.12,0,0,0,2,1.92,6.22,6.22,0,0,0,2.92.68,8,8,0,0,0,3.94-1,7.42,7.42,0,0,0,2.17-1.85.67.67,0,0,0-.54-1.08h-1a.66.66,0,0,0-.53.27,4.38,4.38,0,0,1-1.49,1.22,4.81,4.81,0,0,1-2.2.51,3.75,3.75,0,0,1-2.74-1,3.66,3.66,0,0,1-1-2.72,7.89,7.89,0,0,1,.1-1.06,5.9,5.9,0,0,1,1-2.51,5.24,5.24,0,0,1,1.9-1.67,5.09,5.09,0,0,1,2.44-.59,3.79,3.79,0,0,1,2,.5,2.7,2.7,0,0,1,1,1.12.64.64,0,0,0,.57.37h1.28a.67.67,0,0,0,.63-.92A4.37,4.37,0,0,0,120,173.9Z"/><path class="cls-1" d="M135.69,173H135a.76.76,0,0,0-.74.62l-.89,5.08h-6.22l.86-4.82a.75.75,0,0,0-.74-.88h-.65a.74.74,0,0,0-.73.62l-2.08,11.71a.75.75,0,0,0,.74.88h.65a.74.74,0,0,0,.73-.62l.92-5.21h6.21l-.87,5a.75.75,0,0,0,.73.88h.66a.74.74,0,0,0,.73-.62l2.07-11.71A.74.74,0,0,0,135.69,173Z"/><path class="cls-1" d="M146.28,173h-1.46a.71.71,0,0,0-.64.39l-6.3,11.77a.72.72,0,0,0,.64,1.07h.62a.73.73,0,0,0,.64-.39l1.22-2.31h5.53l.37,2.1a.72.72,0,0,0,.71.6h.81a.72.72,0,0,0,.71-.85L147,173.61A.74.74,0,0,0,146.28,173Zm-4.39,8.84,3.27-6.21,1.08,6.21Z"/><path class="cls-1" d="M161.33,173h-9.14a.7.7,0,0,0-.68.57l0,.31a.69.69,0,0,0,.68.81H154a1.38,1.38,0,0,1,1.36,1.62l-1.61,9.13a.65.65,0,0,0,.64.77h.83a.66.66,0,0,0,.65-.55l1.63-9.24a2.1,2.1,0,0,1,2.07-1.73h1.75a.69.69,0,0,0,.68-.57l.06-.3A.69.69,0,0,0,161.33,173Z"/></g></g></svg>