<svg fill="white" xmlns="http://www.w3.org/2000/svg" viewBox="0 0 173.61 173.91"><g id="Capa_2" data-name="Capa 2"><g id="Capa_2_copia_4" data-name="Capa 2 copia 4"><path d="M83.77,75.56a16.43,16.43,0,0,0,3.16-9.84,16.63,16.63,0,0,0-2.25-8.58,15.72,15.72,0,0,0-6.76-6.09A24.2,24.2,0,0,0,67,48.8H49.59a3.29,3.29,0,0,0-3.29,3.3v48.58a3.29,3.29,0,0,0,3.29,3.3h4.48a3.3,3.3,0,0,0,3.3-3.3V82.48h5.21l11.23,19.83A3.31,3.31,0,0,0,76.68,104h5.11a3.29,3.29,0,0,0,2.84-5L74.36,81.61A16.31,16.31,0,0,0,83.77,75.56ZM73.33,72q-2.2,2.18-6.72,2.18H57.37V58h9.24q4.52,0,6.72,2.09A7.71,7.71,0,0,1,75.55,66,8.07,8.07,0,0,1,73.33,72Z"/><path d="M113.4,113.86a9.16,9.16,0,0,1-6.09,1.86,8.51,8.51,0,0,1-6-2,7.09,7.09,0,0,1-2.06-3.31,2.84,2.84,0,0,0-2.71-2.06H90.24a2.85,2.85,0,0,0-2.76,3.5,14.06,14.06,0,0,0,2.36,5.27,17,17,0,0,0,7.32,5.69,26.12,26.12,0,0,0,10.39,2,23,23,0,0,0,10.52-2.25,15.69,15.69,0,0,0,8.53-10.43,16,16,0,0,0,.48-4.08,13.08,13.08,0,0,0-2.45-8.06,15.92,15.92,0,0,0-5.85-4.75A65.75,65.75,0,0,0,110,92.08c-2.63-.79-4.68-1.49-6.12-2.09a11.11,11.11,0,0,1-3.64-2.38,4.94,4.94,0,0,1-1.46-3.67,6,6,0,0,1,1.93-4.82,7.67,7.67,0,0,1,5.18-1.66,9.12,9.12,0,0,1,6,1.85,6.47,6.47,0,0,1,2,2.74,2.91,2.91,0,0,0,2.7,2h6.54a2.85,2.85,0,0,0,2.75-3.57,14.71,14.71,0,0,0-5.3-8q-5.34-4.16-13.88-4.15a25.06,25.06,0,0,0-10.12,1.93,15.59,15.59,0,0,0-6.87,5.58,14.85,14.85,0,0,0-2.46,8.53,13.27,13.27,0,0,0,2.42,8.34,15.2,15.2,0,0,0,5.77,4.67,65.68,65.68,0,0,0,8.73,3.12,61.08,61.08,0,0,1,6.21,2,10.35,10.35,0,0,1,3.75,2.49,5.62,5.62,0,0,1,1.51,4A6,6,0,0,1,113.4,113.86Z"/><path d="M173.61,77.35v14.9c-.29,2.07-.55,4.14-.88,6.19-3.65,22.39-14.32,40.67-32.74,53.94-22.8,16.42-48.22,20.25-75.36,14.22a7.13,7.13,0,0,0-4.88.45q-6.45,3-13,5.74a14.38,14.38,0,0,1-10.42.28c-5-1.76-7.76-5.59-8.47-10.88-.57-4.26-.17-8.56-.51-12.84a5.3,5.3,0,0,0-1.77-3.8,70.15,70.15,0,0,1-8.91-10C2.45,116.34-2.48,94.72,1.14,71.27c4-26,17.54-46,40.38-59.06C65.35-1.41,90.8-3.47,116.67,5.2c27.38,9.16,45.4,28,53.85,55.72A97.52,97.52,0,0,1,173.61,77.35ZM86.87,155.22a72.5,72.5,0,0,0,19-2.14c18.48-4.62,33.28-14.56,43.46-30.81,9.37-15,12.37-31.4,9.6-48.72-4-24.72-17.62-42.38-40.35-52.73-15.75-7.18-32.32-8.33-49.16-4.64-18.36,4-33.16,13.63-43.74,29.29-8.61,12.77-12.16,27-11.58,42.34A69.89,69.89,0,0,0,22.54,119a64.48,64.48,0,0,0,13.54,17.22,15.14,15.14,0,0,1,5.24,12c0,3.27.25,6.54.28,9.81,0,1.42.4,1.65,1.67,1.07,4.21-1.91,8.47-3.71,12.68-5.63a14.79,14.79,0,0,1,10.39-.81A72.74,72.74,0,0,0,86.87,155.22Z"/></g></g></svg>